<?xml version="1.0" encoding="utf-8"?>
<!-- Generator: Adobe Illustrator 22.1.0, SVG Export Plug-In . SVG Version: 6.00 Build 0)  -->
<svg version="1.1" id="图层_1" xmlns="http://www.w3.org/2000/svg" xmlns:xlink="http://www.w3.org/1999/xlink" x="0px" y="0px"
	 viewBox="0 0 200 200" style="enable-background:new 0 0 200 200;" xml:space="preserve">
<path d="M152.5,179.2h-105c-7.5,0-13.3-6.2-13.3-13.3V34.2c-0.4-7.1,5.8-13.3,13.3-13.3h75.8c3.8,0,7.1,1.3,9.6,3.8l29.6,29.2
	c2.5,2.5,4.2,6.2,4.2,9.6v102.5C166.2,172.9,160,179.2,152.5,179.2z M47.5,32.5c-1.2,0-2.1,0.8-2.1,2.1v131.2c0,1.2,0.8,2.1,2.1,2.1
	h105.4c1.2,0,2.1-0.8,2.1-2.1V63.3c0-0.4,0-0.8-0.4-1.2L125,32.9c-0.4-0.4-0.8-0.4-1.3-0.4C123.7,32.5,47.5,32.5,47.5,32.5z"/>
<path d="M105.6,76.6v60.8c0,3.3-2.5,5.8-5.8,5.8s-5.8-2.5-5.8-5.8V77c0-3.3,2.5-5.8,5.8-5.8S105.6,73.7,105.6,76.6L105.6,76.6z"/>
<path d="M130.4,113.1H69.6c-3.3,0-5.8-2.5-5.8-5.8c0-3.3,2.5-5.8,5.8-5.8H130c3.3,0,5.8,2.5,5.8,5.8
	C135.8,110.6,133.3,113.1,130.4,113.1L130.4,113.1z"/>
<path d="M160.4,70.8h-26.2c-7.5,0-13.3-6.2-13.3-13.3v-25c0-3.3,2.1-6.3,5-7.5s6.7-0.4,8.7,1.7l27.9,27.5c2.5,2.5,3.8,5.8,3.8,9.2
	v2.1C166.2,68.3,163.8,70.8,160.4,70.8L160.4,70.8z M132.1,40.4v17.1c0,1.2,0.8,2.1,2.1,2.1h17.5L132.1,40.4z"/>
</svg>
