<?xml version="1.0" encoding="utf-8"?>
<!-- Generator: Adobe Illustrator 22.1.0, SVG Export Plug-In . SVG Version: 6.00 Build 0)  -->
<svg version="1.1" id="图层_1" xmlns="http://www.w3.org/2000/svg" xmlns:xlink="http://www.w3.org/1999/xlink" x="0px" y="0px"
	 viewBox="0 0 200 200" style="enable-background:new 0 0 200 200;" xml:space="preserve">
<path d="M191.3,31.8L161.2,6.5C157,3,150.8,3.6,147.3,7.7l0,0c-3.5,4.2-2.9,10.3,1.2,13.8l30.1,25.3c4.2,3.5,10.3,2.9,13.8-1.2l0,0
	C196,41.4,195.4,35.2,191.3,31.8z M53.8,7.7L53.8,7.7C50.3,3.5,44.1,3,39.9,6.5L9.8,31.7c-4.2,3.5-4.7,9.7-1.2,13.8l0,0
	c3.5,4.1,9.7,4.7,13.8,1.2l30.1-25.3C56.7,18,57.3,11.8,53.8,7.7z M98.4,60.5h-0.6c-3.9,0-7.1,3.2-7.1,7.1v51.9l40.6,24.4
	c3.3,2,7.7,0.9,9.7-2.4v0c2.1-3.4,1-7.8-2.4-9.8L105.5,112V67.6C105.5,63.6,102.3,60.5,98.4,60.5z"/>
<path d="M100.5,21.2c-48.9,0-88.4,39.6-88.4,88.4c0,48.8,39.5,88.4,88.4,88.4c48.9,0,88.5-39.6,88.5-88.4
	C189,60.8,149.4,21.2,100.5,21.2z M100.6,178.4c-38,0-68.8-30.8-68.8-68.8c0-38,30.8-68.8,68.8-68.8s68.8,30.8,68.8,68.8
	C169.3,147.6,138.6,178.4,100.6,178.4z"/>
</svg>
