<?xml version="1.0" encoding="utf-8"?>
<!-- Generator: Adobe Illustrator 22.1.0, SVG Export Plug-In . SVG Version: 6.00 Build 0)  -->
<svg version="1.1" id="图层_1" xmlns="http://www.w3.org/2000/svg" xmlns:xlink="http://www.w3.org/1999/xlink" x="0px" y="0px"
	 viewBox="0 0 200 200" style="enable-background:new 0 0 200 200;" xml:space="preserve">
<path d="M148.2,29.8h32.1c7.9,0,14.2,6.4,14.2,14.2v131.7c0,7.9-6.4,14.2-14.2,14.2H20.1c-7.9,0-14.2-6.4-14.2-14.2V44.1
	c0-7.9,6.4-14.2,14.2-14.2h32v-5.3c0-4.9,4-8.9,8.9-8.9s8.9,4,8.9,8.9v5.3h60.5v-5.3c0-4.9,4-8.9,8.9-8.9c4.9,0,8.9,4,8.9,8.9V29.8z
	 M148.2,47.6v7.1c0,4.9-4,8.9-8.9,8.9c-4.9,0-8.9-4-8.9-8.9v-7.1H69.9v7.1c0,4.9-4,8.9-8.9,8.9s-8.9-4-8.9-8.9v-7.1H23.6v124.6
	h153.1V47.6H148.2z M157.1,93c0,4.9-4,8.9-8.9,8.9H52.1c-4.9,0-8.9-4-8.9-8.9c0-4.9,4-8.9,8.9-8.9h96.1
	C153.1,84.1,157.1,88.1,157.1,93z M103.7,135.7c0,4.9-4,8.9-8.9,8.9H52.1c-4.9,0-8.9-4-8.9-8.9c0-4.9,4-8.9,8.9-8.9h42.7
	C99.7,126.8,103.7,130.8,103.7,135.7z"/>
</svg>
