<?xml version="1.0" standalone="no"?><!DOCTYPE svg PUBLIC "-//W3C//DTD SVG 1.1//EN" "http://www.w3.org/Graphics/SVG/1.1/DTD/svg11.dtd"><svg class="icon" width="200px" height="200.00px" viewBox="0 0 1024 1024" version="1.1" xmlns="http://www.w3.org/2000/svg"><path d="M144 64C99.2 64 64 99.2 64 144v736c0 44.8 35.2 80 80 80h736c44.8 0 80-35.2 80-80V144c0-44.8-35.2-80-80-80H144z m0-64h736c80 0 144 64 144 144v736c0 80-64 144-144 144H144c-80 0-144-64-144-144V144c0-80 64-144 144-144z"  /><path d="M496 384c-17.6 0-32-14.4-32-32s14.4-32 32-32h352c17.6 0 32 14.4 32 32s-14.4 32-32 32H496zM496 704c-17.6 0-32-14.4-32-32s14.4-32 32-32h352c17.6 0 32 14.4 32 32s-14.4 32-32 32H496zM264 379.2l129.6-123.2c12.8-12.8 33.6-11.2 44.8 1.6 12.8 12.8 11.2 33.6-1.6 44.8l-152 144c-12.8 11.2-32 11.2-44.8 0l-80-80c-12.8-12.8-12.8-32 0-44.8 12.8-12.8 32-12.8 44.8 0l59.2 57.6zM288 784c-62.4 0-112-49.6-112-112s49.6-112 112-112 112 49.6 112 112-49.6 112-112 112z m0-64c27.2 0 48-20.8 48-48s-20.8-48-48-48-48 20.8-48 48 20.8 48 48 48z"  /></svg>