<?xml version="1.0" standalone="no"?><!DOCTYPE svg PUBLIC "-//W3C//DTD SVG 1.1//EN" "http://www.w3.org/Graphics/SVG/1.1/DTD/svg11.dtd"><svg class="icon" width="200px" height="200.00px" viewBox="0 0 1024 1024" version="1.1" xmlns="http://www.w3.org/2000/svg"><path d="M886.3 537C874 349.7 724.3 200 537 187.7v-50.8h100v-50H386.9v50h100v50.8C299.7 200 150 349.7 137.7 537h-0.8v50h0.8C150 774.3 299.7 924 487 936.4v0.8h50v-0.8C724.3 924 874 774.3 886.3 587h0.8v-50h-0.8z m-50.1 50c-5.7 75.4-37.2 143.6-85.6 195.9l-54.7-54.7-17.7 17.7 54.7 54.7C680.6 849 612.4 880.5 537 886.2v-74.1h-50v74.1c-75-5.7-142.9-36.9-195.1-84.9l45.3-45.3-19.2-19.2-45.3 45.3c-48-52.2-79.2-120.1-84.9-195.1h74.1v-50h-74.1c5.7-75.4 37.2-143.6 85.6-195.9l54.7 54.7 17.7-17.7-54.7-54.7c52.3-48.4 120.5-79.9 195.9-85.6v74.1h50v-74.1c75 5.7 142.9 36.9 195.1 84.9L686.8 368l19.2 19.2 45.3-45.3c48 52.2 79.2 120.1 84.9 195.1h-74.1v50h74.1zM541.5 386.9H487v177.2L382.4 668.8l35.4 35.4L540.9 581h0.6v-0.6l0.1-0.1-0.1-0.1V386.9z" /></svg>